<svg width="352" height="352" viewBox="0 0 352 352" fill="none" xmlns="http://www.w3.org/2000/svg">
<path fill-rule="evenodd" clip-rule="evenodd" d="M155.097 0.549389C123.329 4.57839 94.9044 16.0694 69.4514 35.1754C34.6994 61.2594 11.0874 99.0504 2.25139 142.729C0.252386 152.609 -0.0366152 156.949 0.0033848 176.563C0.0553848 202.136 1.31438 210.315 8.53338 231.999C31.0394 299.599 92.5514 347.015 163.495 351.448C218.681 354.896 270.695 333.682 306.646 293.063C353.9 239.672 364.689 163.779 334.082 100.063C309.955 49.8374 264.567 14.3014 210.145 3.03039C200.548 1.04239 194.117 0.416388 179.951 0.0923883C170.051 -0.134612 158.867 0.0713891 155.097 0.549389ZM192.957 11.0804C266.442 19.6614 323.735 73.5294 336.521 146.063C339.406 162.43 339.642 187.137 337.047 201.063C331.949 228.416 320.346 254.898 304.516 275.309C297.085 284.891 293.791 288.236 292.781 287.227C292.42 286.865 291.368 284.43 290.445 281.816C289.522 279.202 286.661 273.688 284.089 269.563C279.412 262.063 279.412 262.063 286.087 255.609C290.691 251.157 293.614 247.274 295.512 243.089C297.665 238.34 299.044 236.651 301.863 235.306C309.419 231.703 311.906 221.47 306.84 214.828C304.474 211.727 304.273 210.776 304.708 204.734C305.463 194.239 299.581 167.701 293.866 155.82C289.445 146.628 286.072 142.794 277.239 136.922C269.103 131.513 265.012 129.939 253.951 127.959C235.256 124.612 216.014 126.725 202.307 133.628C187.426 141.124 170.523 164.437 170.454 177.563C170.444 179.488 169.543 183.988 168.451 187.563C165.385 197.605 165.764 201.544 170.675 210.636C174.899 218.457 174.899 218.457 172.624 220.879C165.984 227.947 169.83 240.101 179.333 242.077C182.714 242.78 182.714 242.78 182.037 239.171C181.665 237.187 181.546 235.563 181.774 235.563C182.001 235.563 183.909 238.508 186.014 242.106C194.058 255.861 206.013 265.019 223.284 270.657C230.125 272.89 231.234 273.495 228.547 273.525C226.674 273.546 221.193 272.378 216.366 270.929C211.54 269.481 206.966 268.535 206.203 268.828C204.18 269.604 198.689 284.575 196.397 295.563C195.307 300.788 193.877 311.025 193.219 318.313C192.561 325.601 191.714 331.563 191.337 331.563C190.96 331.563 189.907 328.076 188.996 323.813C183.62 298.655 163.992 224.771 162.211 222.99C162.003 222.781 155.559 221.203 147.891 219.482C140.224 217.762 133.164 215.935 132.201 215.423C131.052 214.812 130.451 213.307 130.451 211.04C130.451 208.059 131.03 207.229 134.701 204.955C140.201 201.547 144.274 197.743 146.038 194.368C147.034 192.461 149.202 191.032 153.448 189.484C156.75 188.28 159.451 186.835 159.451 186.273C159.451 185.712 158.326 183.777 156.951 181.974C155.576 180.171 154.451 178.007 154.451 177.165C154.451 175.521 157.369 173.563 159.82 173.563C160.646 173.563 162.457 173.131 163.846 172.603C166.371 171.643 166.371 171.643 164.411 165.946C163.333 162.813 162.451 159.866 162.451 159.397C162.451 158.928 166.276 156.727 170.951 154.506C175.626 152.285 179.451 149.89 179.451 149.184C179.451 148.478 176.287 146.166 172.419 144.045C160.951 137.759 160.973 136.967 172.757 132.101C180.918 128.731 191.777 121.9 190.993 120.63C190.684 120.13 186.165 118.3 180.951 116.563C175.737 114.826 171.218 112.995 170.908 112.494C170.599 111.993 174.444 107.345 179.454 102.167C184.464 96.9884 188.201 92.5274 187.757 92.2544C187.314 91.9804 182.226 91.4514 176.451 91.0784C170.676 90.7044 165.145 90.1744 164.16 89.9004C162.149 89.3414 162.387 88.8294 171.763 73.5634C174.674 68.8224 175.913 65.9604 175.129 65.7824C174.446 65.6274 169.059 67.3154 163.156 69.5324C157.253 71.7494 152.033 73.5634 151.556 73.5634C150.183 73.5634 148.64 65.9054 147.878 55.3134C147.492 49.9504 146.964 45.5634 146.704 45.5634C144.473 45.5634 132.747 53.2714 127.112 58.4424C120.122 64.8574 120.122 64.8574 115.618 59.9604C104.795 48.1944 102.211 45.5634 101.477 45.5634C101.048 45.5634 99.7114 49.5014 98.5064 54.3134C95.4524 66.5084 92.9394 71.9564 90.7054 71.2224C81.4614 68.1864 71.7844 65.5634 69.8244 65.5634C67.4334 65.5634 67.4304 65.5764 69.0274 69.3134C73.4604 79.6834 74.6724 87.8804 71.9294 88.9334C71.0924 89.2544 64.4544 90.2274 57.1794 91.0944C38.4024 93.3344 39.2154 92.6134 46.6764 100.404C50.1834 104.067 54.0924 108.772 55.3634 110.861C57.6234 114.576 57.6334 114.705 55.8124 116.725C54.7894 117.861 49.3384 121.933 43.7014 125.774C38.0634 129.615 33.4514 133.092 33.4514 133.501C33.4514 133.91 36.0394 134.819 39.2014 135.521C42.3644 136.222 46.3014 137.469 47.9514 138.292C51.6784 140.149 57.4514 145.542 57.4514 147.165C57.4514 147.831 54.2584 151.455 50.3564 155.219C43.4674 161.864 40.8084 165.253 41.7454 166.19C41.9964 166.441 45.5204 167.579 49.5764 168.72C61.2394 171.998 60.6374 171.052 57.8534 181.737C56.2914 187.735 55.8114 191.168 56.4794 191.58C57.0434 191.929 60.4744 191.816 64.1044 191.33C67.7334 190.844 71.3214 190.683 72.0774 190.973C73.0304 191.339 73.4514 193.33 73.4514 197.473C73.4514 200.757 73.8884 203.715 74.4224 204.045C75.4524 204.682 80.9404 202.199 81.8864 200.669C82.1944 200.169 81.1434 197.128 79.5484 193.912C77.9544 190.695 75.9344 185.813 75.0594 183.063C73.2264 177.298 70.4514 161.744 70.4514 157.232C70.4514 151.4 72.1344 156.059 73.2804 165.063C74.8324 177.256 76.8844 184.86 80.6514 192.378C84.2624 199.582 87.6274 202.782 95.0464 206.062C100.127 208.31 102.387 211.239 100.898 213.649C100.1 214.94 92.2024 218.562 77.2504 224.494C71.3654 226.829 66.1164 229.262 65.5864 229.901C64.7024 230.968 61.9644 239.157 54.4984 263.063C52.9524 268.013 51.4004 273.301 51.0504 274.813C50.7004 276.325 49.8474 277.563 49.1564 277.563C47.3934 277.563 38.5234 265.445 32.5814 254.917C23.7874 239.337 17.6894 222.532 13.7654 203.063C11.0184 189.436 11.2914 155.848 14.2624 141.978C23.9944 96.5344 49.2404 60.1394 88.4514 35.0294C105.241 24.2764 126.887 16.0804 147.451 12.6884C168.441 9.22639 175.069 8.99239 192.957 11.0804ZM103.961 111.003C108.418 112.865 111.442 117.852 111.447 123.345C111.452 128.736 110.275 129.251 97.4514 129.463C92.2264 129.549 86.4884 129.882 84.7014 130.203C81.4514 130.786 81.4514 130.786 81.4554 125.424C81.4594 118.596 83.8554 114.562 89.5894 111.724C94.6694 109.209 99.1334 108.985 103.961 111.003ZM141.451 114.771C148.66 117.027 150.775 119.948 148.844 124.981C148.185 126.699 140.054 126.95 125.96 125.689C118.222 124.996 117.234 123.915 119.449 118.567C121.818 112.849 130.515 111.348 141.451 114.771ZM232.107 190.452C237.465 208.882 222.726 224.54 204.757 219.509C195.85 217.015 188.616 206.738 189.618 198C189.922 195.356 190.393 195.03 194.951 194.32C214.177 191.323 219.614 189.015 223.034 182.403C224.615 179.346 224.615 179.346 227.57 182.177C229.335 183.868 231.162 187.199 232.107 190.452ZM251.37 182.449C254.6 186.985 260.335 188.72 274.451 189.432C286.951 190.063 286.951 190.063 287.494 194.063C289.138 206.181 279.646 216.486 266.788 216.541C259.629 216.571 250.151 211.637 245.992 205.713C243.29 201.866 242.951 200.584 242.951 194.223C242.951 188.463 243.407 186.33 245.283 183.313C246.565 181.251 247.997 179.563 248.464 179.563C248.932 179.563 250.24 180.862 251.37 182.449ZM139.086 224.313C145.169 233.625 158.332 262.082 159.861 269.225C160.559 272.487 159.466 274.4 151.701 283.508C148.814 286.896 146.451 290.087 146.451 290.6C146.451 291.113 150.051 295.454 154.451 300.247C159.728 305.996 162.451 309.765 162.451 311.322C162.451 312.64 162.01 313.408 161.451 313.063C160.901 312.723 160.451 311.82 160.451 311.055C160.451 310.291 156.626 305.647 151.951 300.734C147.276 295.821 143.451 291.315 143.451 290.721C143.451 290.126 146.591 286.135 150.428 281.851C156.106 275.513 157.41 273.437 157.428 270.699C157.461 265.867 144.416 236.012 136.942 223.813C133.37 217.984 135.236 218.419 139.086 224.313ZM89.6274 239.763C82.3474 256.947 76.4514 273.066 76.4514 275.782C76.4514 276.929 79.6094 280.851 83.9514 285.095C88.0764 289.127 91.4514 292.9 91.4514 293.479C91.4514 294.058 90.0604 296.001 88.3594 297.797C86.1944 300.084 85.4834 300.464 85.9884 299.063C88.0864 293.238 87.8774 292.664 81.0754 285.619C76.4664 280.844 74.4514 277.989 74.4514 276.229C74.4514 273.313 81.0154 255.401 88.3864 238.202C94.0754 224.929 94.4394 224.218 95.1684 224.946C95.4524 225.23 92.9584 231.898 89.6274 239.763ZM134.306 236.563C135.555 243.954 137.445 267.361 137.449 275.48C137.453 286.275 136.197 279.233 134.395 258.372C133.383 246.652 132.288 234.813 131.962 232.063C131.119 224.966 132.936 228.453 134.306 236.563ZM98.4154 256.268C97.0924 275.705 95.7004 284.711 95.5374 274.893C95.4304 268.446 97.3494 239.558 98.0104 237.67C99.4364 233.598 99.5624 239.405 98.4154 256.268Z" fill="black"/>
</svg>
