<svg fill="#000000" xmlns="http://www.w3.org/2000/svg"  viewBox="0 0 100 100" width="500px" height="500px"><path d="M 53.351562 7.8847656 L 47.099609 7.9238281 A 2.0002 2.0002 0 0 0 45.378906 8.9238281 L 43.996094 11.324219 C 41.550768 11.642396 34.35921 13.027728 28.197266 19.130859 C 24.255385 23.035117 22.527573 28.574704 21.658203 33.103516 C 20.852251 37.301966 20.839402 40.462035 20.839844 40.943359 C 20.73933 41.284053 13.155141 66.987063 10.402344 76.318359 C 9.9923963 77.704213 10.201852 79.201132 10.96875 80.421875 C 11.737188 81.64507 12.99613 82.476934 14.419922 82.708984 A 2.0002 2.0002 0 0 0 14.419922 82.710938 C 22.922851 84.094067 43.845707 87.497774 44.84375 87.660156 L 48.15625 91.537109 A 2.0002 2.0002 0 0 0 51.123047 91.617188 L 55.152344 87.390625 C 56.073361 87.250454 75.928263 84.228647 84.337891 82.949219 A 2.0002 2.0002 0 0 0 84.339844 82.949219 C 85.804733 82.725872 87.102118 81.876289 87.892578 80.625 A 2.0002 2.0002 0 0 0 87.892578 80.623047 C 88.681964 79.370862 88.891302 77.833281 88.460938 76.414062 C 85.620992 67.042399 77.989626 41.85427 77.935547 41.675781 C 77.91878 41.38852 77.760067 38.446656 76.994141 34.333984 C 76.19194 30.026541 74.816291 24.744584 72.146484 20.642578 C 67.379984 13.319589 58.709025 11.45041 56.283203 11.046875 L 55.117188 8.921875 A 2.0002 2.0002 0 0 0 53.351562 7.8847656 z M 52.185547 11.892578 L 53.236328 13.806641 A 2.0002 2.0002 0 0 0 53.40625 14.060547 L 52.142578 42.935547 C 52.13364 42.941259 52.091065 42.966163 52.083984 42.970703 L 46.820312 42.949219 C 46.787932 42.931399 46.48045 42.781347 46.396484 42.736328 L 46.490234 14.734375 A 2.0002 2.0002 0 0 0 46.96875 14.177734 L 48.271484 11.916016 L 52.185547 11.892578 z M 55.369141 14.951172 C 55.697859 15.018439 56.139659 15.124725 56.683594 15.265625 L 56.1875 16.753906 A 1.0001 1.0001 0 1 0 58.083984 17.386719 L 58.601562 15.839844 C 58.930941 15.949051 59.27115 16.071901 59.623047 16.203125 L 58.835938 17.724609 A 1.0002019 1.0002019 0 1 0 60.613281 18.642578 L 61.480469 16.960938 C 61.778109 17.09805 62.076391 17.243 62.376953 17.396484 L 62.03125 17.916016 A 1.0005224 1.0005224 0 1 0 63.699219 19.021484 L 64.115234 18.392578 C 64.728598 18.780168 65.331336 19.197186 65.90625 19.666016 L 63.662109 21.515625 A 1.0002997 1.0002997 0 1 0 64.935547 23.058594 L 67.373047 21.048828 C 67.57012 21.258675 67.770747 21.464171 67.955078 21.6875 L 64.050781 24.5 A 1.0003748 1.0003748 0 0 0 65.220703 26.123047 L 69.09375 23.332031 C 69.445599 23.918149 69.778908 24.540881 70.087891 25.203125 L 68.548828 26.15625 A 1.0002793 1.0002793 0 1 0 69.601562 27.857422 L 70.880859 27.064453 C 71.101729 27.642371 71.306089 28.233739 71.5 28.832031 L 68.888672 29.625 A 1.0001 1.0001 0 1 0 69.46875 31.539062 L 72.068359 30.75 C 72.472486 32.222814 72.807185 33.69353 73.0625 35.064453 C 73.165963 35.62 73.233869 36.10199 73.316406 36.617188 L 70.453125 37.132812 A 1.0002918 1.0002918 0 0 0 70.808594 39.101562 L 73.611328 38.595703 C 73.891289 40.755165 73.986328 42.240234 73.986328 42.240234 A 2.0002 2.0002 0 0 0 74.070312 42.712891 C 74.070312 42.712891 81.782766 68.169064 84.632812 77.574219 C 84.694698 77.778298 84.690858 77.992146 84.634766 78.193359 C 84.09204 76.794084 81.786454 70.84773 78.800781 63.1875 C 75.48324 54.675807 72.065052 45.92772 71.386719 44.378906 C 70.698083 42.80785 69.405904 41.014165 67.482422 39.808594 C 65.55894 38.603022 62.956086 38.06205 60.03125 39.101562 C 57.655498 39.946651 55.640693 40.952961 54.195312 41.744141 L 55.369141 14.951172 z M 44.488281 15.283203 L 44.400391 41.761719 C 42.883032 41.067583 40.875707 40.228146 38.644531 39.558594 C 35.119801 38.500846 32.270056 39.582394 30.4375 40.917969 C 28.604944 42.253539 27.654297 43.875 27.654297 43.875 A 1.0001 1.0001 0 0 0 27.578125 44.037109 L 14.833984 78.671875 C 14.642127 78.590202 14.468257 78.472504 14.355469 78.292969 C 14.196367 78.039712 14.154228 77.737271 14.238281 77.453125 A 2.0002 2.0002 0 0 0 14.240234 77.451172 C 17.011216 68.058236 24.746094 41.839844 24.746094 41.839844 A 2.0002 2.0002 0 0 0 24.816406 41.457031 L 28.597656 40.177734 A 1.0001 1.0001 0 0 0 28.320312 38.226562 A 1.0001 1.0001 0 0 0 27.957031 38.283203 L 24.900391 39.318359 C 24.919094 39.017724 24.955785 38.662092 24.986328 38.304688 L 27.945312 37.224609 A 1.0001 1.0001 0 0 0 27.621094 35.279297 A 1.0001 1.0001 0 0 0 27.259766 35.345703 L 25.226562 36.087891 C 25.32355 35.381521 25.437309 34.643802 25.587891 33.859375 C 25.88691 32.301689 26.311349 30.644397 26.882812 29.025391 L 29.158203 29.841797 A 1.0002081 1.0002081 0 1 0 29.833984 27.958984 L 27.626953 27.166016 C 27.801104 26.770635 27.977289 26.377368 28.171875 25.996094 L 31.087891 27.517578 A 1.0002686 1.0002686 0 0 0 32.013672 25.744141 L 29.179688 24.267578 C 29.727948 23.427729 30.331164 22.646715 31.011719 21.972656 C 31.029085 21.955456 31.047062 21.940942 31.064453 21.923828 L 33.042969 23.414062 A 1.0001 1.0001 0 1 0 34.246094 21.816406 L 32.585938 20.566406 C 33.13431 20.115582 33.687478 19.703111 34.242188 19.324219 L 35.787109 21.832031 A 1.0001 1.0001 0 1 0 37.490234 20.783203 L 35.933594 18.255859 C 39.6165 16.165692 42.984946 15.496493 44.488281 15.283203 z M 36.361328 28.453125 C 36.22525 28.476828 36.092 28.527922 35.96875 28.607422 C 35.47575 28.925422 35.334344 29.583172 35.652344 30.076172 C 35.970344 30.569172 36.628094 30.712531 37.121094 30.394531 C 37.614094 30.076531 37.757453 29.416828 37.439453 28.923828 C 37.200953 28.554078 36.769562 28.382016 36.361328 28.453125 z M 31.683594 33.556641 C 31.547516 33.580344 31.414266 33.631438 31.291016 33.710938 C 30.798016 34.028937 30.656609 34.686687 30.974609 35.179688 C 31.292609 35.672687 31.950359 35.814094 32.443359 35.496094 C 32.936359 35.178094 33.079719 34.520344 32.761719 34.027344 C 32.523219 33.657594 32.091828 33.485531 31.683594 33.556641 z M 39.929688 34.619141 C 39.793609 34.642844 39.660359 34.693938 39.537109 34.773438 C 39.044109 35.091437 38.902703 35.749187 39.220703 36.242188 C 39.538703 36.735187 40.196453 36.878547 40.689453 36.560547 C 41.182453 36.242547 41.325813 35.582844 41.007812 35.089844 C 40.769312 34.720094 40.337922 34.548031 39.929688 34.619141 z M 63.167969 40.529297 C 64.42044 40.529899 65.486629 40.916998 66.419922 41.501953 C 67.91319 42.437881 69.017324 43.955697 69.554688 45.181641 C 70.101354 46.429827 73.620791 55.404505 76.9375 63.914062 C 79.964651 71.680713 82.368324 77.882793 82.851562 79.128906 C 82.483774 79.184866 82.075777 79.247431 81.673828 79.308594 L 80.808594 76.666016 A 1.0001 1.0001 0 0 0 79.822266 75.964844 A 1.0001 1.0001 0 0 0 78.908203 77.289062 L 79.669922 79.613281 C 79.22099 79.681601 78.967791 79.719228 78.496094 79.791016 L 77.513672 76.230469 A 1.0001 1.0001 0 0 0 76.5625 75.482422 A 1.0001 1.0001 0 0 0 75.585938 76.763672 L 76.505859 80.095703 C 76.024202 80.169012 75.869468 80.190662 75.376953 80.265625 L 74.720703 77.902344 A 1.0001 1.0001 0 0 0 73.767578 77.15625 A 1.0001 1.0001 0 0 0 72.792969 78.4375 L 73.384766 80.570312 C 64.695084 81.892987 53.876953 83.539062 53.876953 83.539062 A 2.0002 2.0002 0 0 0 52.730469 84.136719 L 49.757812 87.253906 L 47.408203 84.503906 A 2.0002 2.0002 0 0 0 46.208984 83.828125 C 46.208984 83.828125 35.045509 82.013356 26.054688 80.550781 L 26.685547 79.386719 A 1.0001 1.0001 0 0 0 25.794922 77.898438 A 1.0001 1.0001 0 0 0 24.927734 78.433594 L 23.964844 80.210938 C 23.491367 80.133915 23.344581 80.108638 22.880859 80.033203 L 23.800781 77.978516 A 1.0001 1.0001 0 0 0 22.900391 76.556641 A 1.0001 1.0001 0 0 0 21.974609 77.162109 L 20.837891 79.701172 C 20.489886 79.644561 20.311045 79.615275 19.974609 79.560547 L 20.951172 76.537109 A 1.0001 1.0001 0 0 0 20 75.216797 A 1.0001 1.0001 0 0 0 19.046875 75.921875 L 17.978516 79.236328 C 17.573018 79.170366 17.201505 79.109883 16.826172 79.048828 L 29.40625 44.857422 C 29.42592 44.824472 30.15332 43.59865 31.615234 42.533203 C 33.096678 41.453524 35.167043 40.603357 38.070312 41.474609 C 42.426469 42.781845 46.099609 44.822266 46.099609 44.822266 A 1.0001 1.0001 0 0 0 46.582031 44.947266 L 52.345703 44.972656 A 1.0001 1.0001 0 0 0 52.894531 44.8125 C 52.894531 44.8125 56.490325 42.484185 60.701172 40.986328 C 61.597483 40.667771 62.416486 40.528935 63.167969 40.529297 z M 61.330078 44.265625 C 60.966342 44.257701 60.589984 44.266252 60.199219 44.294922 C 57.147139 44.518811 55.1769 45.430011 53.972656 46.689453 C 52.768412 47.948895 52.408459 49.465789 52.273438 50.623047 C 52.149572 51.688146 52.376163 52.950791 53.015625 54.105469 C 53.655087 55.260146 54.832036 56.313987 56.458984 56.429688 C 57.529955 56.505978 59.739589 56.473241 61.767578 56.431641 C 63.795567 56.389991 65.585938 56.332031 65.585938 56.332031 A 1.0001 1.0001 0 0 0 65.935547 56.257812 C 65.935547 56.257812 66.935854 55.848594 67.833984 54.921875 C 68.732115 53.995156 69.577136 52.417867 69.248047 50.363281 C 69.07468 49.281368 68.447272 47.722016 67.015625 46.392578 C 65.762934 45.22932 63.876228 44.32109 61.330078 44.265625 z M 37.599609 44.710938 C 35.053833 44.766402 33.168707 45.674632 31.916016 46.837891 C 30.484368 48.167329 29.855008 49.72668 29.681641 50.808594 C 29.352551 52.86318 30.199526 54.440468 31.097656 55.367188 C 31.995787 56.293906 32.996094 56.703125 32.996094 56.703125 A 1.0001 1.0001 0 0 0 33.34375 56.777344 C 33.34375 56.777344 35.134111 56.837014 37.162109 56.878906 C 39.190108 56.920806 41.40151 56.9513 42.472656 56.875 C 44.099595 56.759301 45.276382 55.707448 45.916016 54.552734 C 46.55565 53.398021 46.78279 52.133973 46.658203 51.068359 C 46.52317 49.910468 46.163327 48.394304 44.958984 47.134766 C 43.754641 45.875227 41.782071 44.964128 38.730469 44.740234 C 38.339703 44.711564 37.963292 44.703014 37.599609 44.710938 z M 61.292969 46.259766 C 63.391691 46.293342 64.734582 47.003368 65.654297 47.857422 C 66.7054 48.833484 67.180804 50.101601 67.273438 50.679688 C 67.499347 52.0901 66.992557 52.918219 66.398438 53.53125 C 65.850033 54.09711 65.351621 54.301715 65.265625 54.339844 C 65.048266 54.346844 63.604565 54.395024 61.726562 54.433594 C 59.712803 54.474944 57.411592 54.491294 56.601562 54.433594 C 55.725512 54.371294 55.176709 53.882541 54.763672 53.136719 C 54.350634 52.390896 54.19663 51.396416 54.259766 50.853516 C 54.371743 49.893773 54.625963 48.898621 55.417969 48.070312 C 56.209975 47.242005 57.617783 46.489174 60.345703 46.289062 C 60.677312 46.264733 60.993151 46.254969 61.292969 46.259766 z M 37.636719 46.705078 C 37.936483 46.700282 38.252375 46.710045 38.583984 46.734375 C 41.311382 46.934482 42.721515 47.687163 43.513672 48.515625 C 44.305829 49.344087 44.557955 50.340673 44.669922 51.300781 C 44.733332 51.843167 44.579132 52.836244 44.166016 53.582031 C 43.7529 54.327818 43.206139 54.818559 42.330078 54.880859 C 41.520225 54.938549 39.21883 54.920556 37.205078 54.878906 C 35.326049 54.840086 33.879931 54.792126 33.664062 54.785156 C 33.578043 54.747016 33.081593 54.540455 32.533203 53.974609 C 31.939084 53.361579 31.432293 52.535414 31.658203 51.125 C 31.750833 50.546914 32.226241 49.278796 33.277344 48.302734 C 34.197058 47.448681 35.53837 46.738654 37.636719 46.705078 z M 49.458984 55.398438 C 48.294082 55.436527 47.331862 56.006692 46.751953 56.759766 C 46.172044 57.512839 45.907382 58.396686 45.763672 59.224609 C 45.56093 60.392621 45.607098 61.298164 45.654297 61.855469 L 35.585938 73.865234 C 35.343537 73.92649 35.122141 73.989169 34.939453 74.013672 L 26.183594 61.380859 A 1.0001 1.0001 0 0 0 25.332031 60.939453 A 1.0001 1.0001 0 0 0 24.541016 62.521484 L 32.851562 74.509766 C 32.112806 74.802828 31.354164 75.198125 30.804688 75.904297 C 30.243672 76.625297 30.036885 77.728661 30.439453 78.78125 C 30.853152 79.862943 31.854537 80.523131 32.798828 80.599609 C 33.743119 80.676089 34.620742 80.376046 35.421875 80.013672 C 36.679811 79.444673 37.579726 78.778606 37.994141 78.458984 L 61.824219 78.121094 C 61.989863 78.296279 62.9338 79.279218 64.257812 80.044922 C 64.980354 80.462782 65.807441 80.823633 66.746094 80.794922 C 67.684746 80.766212 68.682536 80.181522 69.234375 79.154297 C 69.789822 78.120357 69.68892 76.937425 69.138672 76.166016 C 68.588421 75.394607 67.78722 74.959287 66.998047 74.630859 C 66.746668 74.526244 66.726594 74.577869 66.476562 74.496094 L 68.789062 71.085938 L 69.822266 72.070312 A 1.0001684 1.0001684 0 0 0 71.203125 70.623047 L 69.925781 69.40625 L 70.601562 68.408203 L 71.830078 69.742188 A 1.0001 1.0001 0 1 0 73.302734 68.388672 L 71.755859 66.707031 L 72.474609 65.646484 L 74.083984 67.136719 A 1.0001 1.0001 0 1 0 75.443359 65.669922 L 73.609375 63.970703 L 74.570312 62.552734 A 1.0001 1.0001 0 0 0 73.730469 60.978516 A 1.0001 1.0001 0 0 0 72.916016 61.429688 L 64.503906 73.84375 A 1.0001 1.0001 0 0 0 64.429688 73.970703 C 64.368259 73.961908 64.261211 73.928369 64.119141 73.890625 L 53.007812 61.53125 C 53.088535 60.951084 53.171449 60.106841 53.048828 59.042969 C 52.955268 58.231199 52.743334 57.360864 52.177734 56.619141 C 51.612135 55.877417 50.617958 55.360538 49.458984 55.398438 z M 49.525391 57.398438 C 50.155416 57.377837 50.360178 57.533411 50.587891 57.832031 C 50.815603 58.130652 50.990861 58.66688 51.060547 59.271484 C 51.139564 59.957046 51.098809 60.60473 51.044922 61.103516 L 47.626953 61.166016 C 47.620509 60.697196 47.636032 60.132962 47.734375 59.566406 C 47.844415 58.932455 48.054659 58.345739 48.335938 57.980469 C 48.617216 57.615198 48.901293 57.418845 49.525391 57.398438 z M 55.898438 58.707031 A 1.0001 1.0001 0 0 0 55.558594 60.644531 C 55.558594 60.644531 62.222686 63.323957 68.667969 60.695312 A 1.0001 1.0001 0 1 0 67.912109 58.84375 C 62.367392 61.105107 56.289063 58.78125 56.289062 58.78125 A 1.0001 1.0001 0 0 0 55.898438 58.707031 z M 42.511719 59.128906 A 1.0001 1.0001 0 0 0 42.152344 59.208984 C 36.324111 61.624364 30.574219 59.283203 30.574219 59.283203 A 1.0005309 1.0005309 0 1 0 29.810547 61.132812 C 29.810547 61.132812 36.242201 63.82326 42.917969 61.056641 A 1.0001 1.0001 0 0 0 42.511719 59.128906 z M 51.722656 63.091797 L 62.353516 74.917969 L 61.708984 76.123047 L 38.109375 76.457031 L 37.201172 75.052734 L 47.117188 63.226562 A 1.0001 1.0001 0 0 0 47.119141 63.224609 A 1.0001 1.0001 0 0 0 47.212891 63.173828 L 51.722656 63.091797 z M 51.345703 64.173828 A 1.0001 1.0001 0 0 0 50.333984 65.257812 L 50.949219 74.046875 A 1.0005202 1.0005202 0 1 0 52.945312 73.90625 L 52.328125 65.117188 A 1.0001 1.0001 0 0 0 51.345703 64.173828 z M 46.9375 64.753906 A 1.0001 1.0001 0 0 0 45.939453 65.755859 L 45.826172 74.695312 A 1.0001 1.0001 0 1 0 47.826172 74.720703 L 47.939453 65.78125 A 1.0001 1.0001 0 0 0 46.9375 64.753906 z M 55.753906 68.697266 A 1.0001 1.0001 0 0 0 54.791016 69.734375 L 54.890625 74.142578 A 1.0002522 1.0002522 0 1 0 56.890625 74.097656 L 56.791016 69.6875 A 1.0001 1.0001 0 0 0 55.753906 68.697266 z M 43.205078 69.181641 A 1.0001 1.0001 0 0 0 42.181641 70.158203 L 42.03125 74.095703 A 1.000725 1.000725 0 1 0 44.03125 74.171875 L 44.179688 70.234375 A 1.0001 1.0001 0 0 0 43.205078 69.181641 z M 35.353516 75.882812 L 36.242188 77.25 C 35.784073 77.557754 35.200374 77.91878 34.597656 78.191406 C 33.959289 78.480157 33.323521 78.634834 32.960938 78.605469 C 32.598352 78.576099 32.500895 78.571169 32.308594 78.068359 C 32.105162 77.536448 32.180139 77.393282 32.382812 77.132812 C 32.585485 76.872344 33.055239 76.565663 33.623047 76.34375 C 34.224333 76.108754 34.857355 75.968723 35.353516 75.882812 z M 64.105469 75.882812 C 64.648112 75.978511 65.422725 76.140407 66.230469 76.476562 C 66.839171 76.729884 67.328298 77.071768 67.509766 77.326172 C 67.691233 77.580575 67.761709 77.670925 67.472656 78.208984 C 67.179996 78.753759 67.015801 78.78482 66.685547 78.794922 C 66.355293 78.805022 65.80685 78.62889 65.259766 78.3125 C 64.475262 77.858806 63.876881 77.315576 63.521484 76.974609 L 64.105469 75.882812 z"/></svg>