<svg width="588" height="535" viewBox="0 0 588 535" fill="none" xmlns="http://www.w3.org/2000/svg">
<path d="M393.015 303.876C354.893 303.876 322.828 332.532 313.567 371.202C305.594 364.582 297.438 364.654 293.442 365.312C289.334 366.002 285.61 367.974 282.262 370.443C272.766 332.145 240.871 303.869 203.003 303.869C157.649 303.869 120.771 344.331 120.771 394.076C120.771 443.817 157.643 484.287 202.998 484.287C248.336 484.287 285.22 443.825 285.22 394.08C285.22 392.585 285.076 391.133 285.017 389.66L285.073 389.67C285.79 385.893 289.977 381.236 295.5 380.331C301.294 379.357 308.888 381.901 310.611 389.48C310.555 390.63 310.781 392.948 310.781 394.098C310.781 443.825 347.672 484.287 393.017 484.287C438.349 484.287 475.229 443.825 475.229 394.091C475.226 344.339 438.349 303.877 393.017 303.877L393.015 303.876ZM202.995 469.108C165.285 469.108 134.602 435.456 134.602 394.085C134.602 352.699 165.285 319.065 202.995 319.065C240.698 319.065 271.378 352.692 271.378 394.085C271.381 435.449 240.698 469.108 202.995 469.108ZM393.015 469.108C355.293 469.108 324.62 435.471 324.62 394.088C324.62 352.703 355.293 319.065 393.015 319.065C430.728 319.065 461.388 352.702 461.388 394.088C461.385 435.467 430.728 469.108 393.015 469.108Z" fill="black"/>
<path d="M249.938 183.494C315.209 163.272 351.481 299.653 351.481 299.653C351.481 299.653 427.758 247.428 420.545 187.56C469.575 204.667 488.875 368.331 488.875 368.331C488.875 368.331 533.716 301.829 519.84 191.572C509.112 128.182 446.838 13.7448 318.918 10.074C265.525 11.0874 229.174 37.9978 229.174 37.9978C229.174 37.9978 116.143 10.074 74.4579 100.458C122.682 82.8267 127.373 97.5143 127.373 97.5143C127.373 97.5143 -1.12928 136.284 108.984 380.957C108.984 380.957 98.9207 282.94 127.006 231.429C130.079 269.89 167.598 286.766 167.598 286.766C167.598 286.766 175.178 202.855 249.932 183.496L249.938 183.494Z" fill="black"/>
<path d="M266.433 311.503L228.871 266.628L258.525 252.296L230.201 217.757L237.515 210.522L274.94 256.163L245.42 270.43L273.686 304.201L266.433 311.503Z" fill="black"/>
</svg>
